<svg width="107" height="119" viewBox="0 0 107 119" fill="none" xmlns="http://www.w3.org/2000/svg">
<path d="M2.875 41.5C2.875 32.0491 2.875 27.3237 4.71426 23.7139C6.33213 20.5387 8.91368 17.9571 12.0889 16.3393C15.6987 14.5 20.4241 14.5 29.875 14.5H77.125C86.5759 14.5 91.3013 14.5 94.9111 16.3393C98.0863 17.9571 100.668 20.5387 102.286 23.7139C104.125 27.3237 104.125 32.0491 104.125 41.5V88.75C104.125 98.2009 104.125 102.926 102.286 106.536C100.668 109.711 98.0863 112.293 94.9111 113.911C91.3013 115.75 86.5759 115.75 77.125 115.75H29.875C20.4241 115.75 15.6987 115.75 12.0889 113.911C8.91368 112.293 6.33213 109.711 4.71426 106.536C2.875 102.926 2.875 98.2009 2.875 88.75V41.5Z" fill="url(#paint0_linear_620_62)"/>
<path fill-rule="evenodd" clip-rule="evenodd" d="M53.4846 61.3596C48.9861 56.2465 41.4844 54.8711 35.8481 59.5532C30.2117 64.2352 29.4182 72.0634 33.8444 77.6009C37.0581 81.6213 45.9584 89.5356 50.5937 93.5702C51.5986 94.4448 52.1011 94.8821 52.6898 95.0556C53.1998 95.2058 53.7694 95.2058 54.2794 95.0556C54.8681 94.8821 55.3706 94.4448 56.3754 93.5702C61.0108 89.5356 69.9111 81.6213 73.1247 77.6009C77.551 72.0634 76.8544 64.186 71.1211 59.5532C65.3879 54.9203 57.9831 56.2465 53.4846 61.3596Z" fill="url(#paint1_linear_620_62)"/>
<path d="M104.125 37H2.875M76 3.25V20.125M31 3.25V20.125M29.875 115.75H77.125C86.5759 115.75 91.3013 115.75 94.9111 113.911C98.0863 112.293 100.668 109.711 102.286 106.536C104.125 102.926 104.125 98.2009 104.125 88.75V41.5C104.125 32.0491 104.125 27.3237 102.286 23.7139C100.668 20.5387 98.0863 17.9571 94.9111 16.3393C91.3013 14.5 86.5759 14.5 77.125 14.5H29.875C20.4241 14.5 15.6987 14.5 12.0889 16.3393C8.91368 17.9571 6.33213 20.5387 4.71426 23.7139C2.875 27.3237 2.875 32.0491 2.875 41.5V88.75C2.875 98.2009 2.875 102.926 4.71426 106.536C6.33213 109.711 8.91368 112.293 12.0889 113.911C15.6987 115.75 20.4241 115.75 29.875 115.75ZM53.4846 61.3596C48.9861 56.2465 41.4844 54.8711 35.8481 59.5532C30.2117 64.2352 29.4182 72.0634 33.8444 77.6009C37.0581 81.6213 45.9584 89.5356 50.5937 93.5702C51.5986 94.4448 52.1011 94.8821 52.6898 95.0556C53.1998 95.2058 53.7694 95.2058 54.2794 95.0556C54.8681 94.8821 55.3706 94.4448 56.3754 93.5702C61.0108 89.5356 69.9111 81.6213 73.1247 77.6009C77.551 72.0634 76.8544 64.186 71.1211 59.5532C65.3879 54.9203 57.9831 56.2465 53.4846 61.3596Z" stroke="white" stroke-width="5" stroke-linecap="round" stroke-linejoin="round"/>
<defs>
<linearGradient id="paint0_linear_620_62" x1="53.5" y1="3.25" x2="53.5" y2="115.75" gradientUnits="userSpaceOnUse">
<stop stop-color="#F56666"/>
<stop offset="0.515" stop-color="#FF9393"/>
<stop offset="1" stop-color="#FFC3C3"/>
</linearGradient>
<linearGradient id="paint1_linear_620_62" x1="53.5" y1="3.25" x2="53.5" y2="115.75" gradientUnits="userSpaceOnUse">
<stop stop-color="#F56666"/>
<stop offset="0.515" stop-color="#FF9393"/>
<stop offset="1" stop-color="#FFC3C3"/>
</linearGradient>
</defs>
</svg>
