<svg width="18" height="20" viewBox="0 0 18 20" fill="none" xmlns="http://www.w3.org/2000/svg">
<path d="M12.3161 1.40967C11.4741 0.500611 10.298 0 9 0C7.69504 0 6.51512 0.497582 5.67701 1.40102C4.82983 2.31441 4.41705 3.55577 4.51397 4.89621C4.70608 7.54075 6.71848 9.69204 9 9.69204C11.2815 9.69204 13.2905 7.54119 13.4856 4.89708C13.5838 3.56875 13.1684 2.32998 12.3161 1.40967ZM16.6152 19.3841H1.38482C1.18547 19.3867 0.988051 19.3448 0.806921 19.2615C0.625791 19.1782 0.46551 19.0555 0.337738 18.9025C0.0564959 18.5663 -0.0568664 18.1072 0.0270736 17.643C0.392256 15.6172 1.53194 13.9154 3.32323 12.7208C4.91463 11.6603 6.93049 11.0766 9 11.0766C11.0695 11.0766 13.0854 11.6607 14.6768 12.7208C16.4681 13.915 17.6077 15.6167 17.9729 17.6425C18.0569 18.1068 17.9435 18.5659 17.6623 18.9021C17.5345 19.0552 17.3743 19.1779 17.1931 19.2613C17.012 19.3447 16.8146 19.3866 16.6152 19.3841Z" fill="white"/>
</svg>
